<mxfile host="app.diagrams.net" agent="Mozilla/5.0 (Macintosh; Intel Mac OS X 10_15_7) AppleWebKit/537.36 (KHTML, like Gecko) Chrome/133.0.0.0 Safari/537.36" version="26.0.16" pages="2">
  <diagram name="High-Level" id="1pz5RcrqyEgEHX8fRW7R">
    <mxGraphModel dx="2074" dy="1145" grid="1" gridSize="10" guides="1" tooltips="1" connect="1" arrows="1" fold="1" page="1" pageScale="1" pageWidth="827" pageHeight="1169" math="0" shadow="0">
      <root>
        <mxCell id="0" />
        <mxCell id="1" parent="0" />
        <mxCell id="yNPfiVlO1QsKJ9p5I-RB-15" value="" style="rounded=0;whiteSpace=wrap;html=1;fillColor=none;" parent="1" vertex="1">
          <mxGeometry x="40" y="70" width="680" height="360" as="geometry" />
        </mxCell>
        <mxCell id="yNPfiVlO1QsKJ9p5I-RB-3" style="edgeStyle=orthogonalEdgeStyle;rounded=0;orthogonalLoop=1;jettySize=auto;html=1;exitX=0.5;exitY=1;exitDx=0;exitDy=0;entryX=0;entryY=0.5;entryDx=0;entryDy=0;flowAnimation=1;" parent="1" source="nROc9CFbH06EN1Bde7F_-1" target="yNPfiVlO1QsKJ9p5I-RB-2" edge="1">
          <mxGeometry relative="1" as="geometry" />
        </mxCell>
        <mxCell id="yNPfiVlO1QsKJ9p5I-RB-5" style="edgeStyle=orthogonalEdgeStyle;rounded=0;orthogonalLoop=1;jettySize=auto;html=1;exitX=1;exitY=0.5;exitDx=0;exitDy=0;entryX=0;entryY=0.5;entryDx=0;entryDy=0;flowAnimation=1;" parent="1" source="nROc9CFbH06EN1Bde7F_-1" target="yNPfiVlO1QsKJ9p5I-RB-4" edge="1">
          <mxGeometry relative="1" as="geometry" />
        </mxCell>
        <mxCell id="nROc9CFbH06EN1Bde7F_-1" value="Exchange Connector" style="whiteSpace=wrap;html=1;align=center;" parent="1" vertex="1">
          <mxGeometry x="70" y="240" width="100" height="40" as="geometry" />
        </mxCell>
        <mxCell id="yNPfiVlO1QsKJ9p5I-RB-7" style="edgeStyle=orthogonalEdgeStyle;rounded=0;orthogonalLoop=1;jettySize=auto;html=1;exitX=0.5;exitY=1;exitDx=0;exitDy=0;entryX=1;entryY=0.5;entryDx=0;entryDy=0;flowAnimation=1;" parent="1" source="nROc9CFbH06EN1Bde7F_-2" target="yNPfiVlO1QsKJ9p5I-RB-2" edge="1">
          <mxGeometry relative="1" as="geometry" />
        </mxCell>
        <mxCell id="yNPfiVlO1QsKJ9p5I-RB-8" style="edgeStyle=orthogonalEdgeStyle;rounded=0;orthogonalLoop=1;jettySize=auto;html=1;exitX=0.5;exitY=0;exitDx=0;exitDy=0;entryX=0.5;entryY=1;entryDx=0;entryDy=0;flowAnimation=1;" parent="1" source="nROc9CFbH06EN1Bde7F_-2" target="yNPfiVlO1QsKJ9p5I-RB-1" edge="1">
          <mxGeometry relative="1" as="geometry" />
        </mxCell>
        <mxCell id="xGDjlDLxAqylIo2OS0dg-7" value="MARKET" style="edgeLabel;html=1;align=center;verticalAlign=middle;resizable=0;points=[];" parent="yNPfiVlO1QsKJ9p5I-RB-8" vertex="1" connectable="0">
          <mxGeometry x="0.0505" y="-1" relative="1" as="geometry">
            <mxPoint as="offset" />
          </mxGeometry>
        </mxCell>
        <mxCell id="xGDjlDLxAqylIo2OS0dg-2" style="edgeStyle=orthogonalEdgeStyle;rounded=0;orthogonalLoop=1;jettySize=auto;html=1;exitX=1;exitY=0.5;exitDx=0;exitDy=0;flowAnimation=1;" parent="1" source="nROc9CFbH06EN1Bde7F_-2" target="xGDjlDLxAqylIo2OS0dg-1" edge="1">
          <mxGeometry relative="1" as="geometry" />
        </mxCell>
        <mxCell id="nROc9CFbH06EN1Bde7F_-2" value="Processing Engine" style="whiteSpace=wrap;html=1;align=center;" parent="1" vertex="1">
          <mxGeometry x="350" y="240" width="100" height="40" as="geometry" />
        </mxCell>
        <mxCell id="yNPfiVlO1QsKJ9p5I-RB-1" value="" style="shape=image;verticalLabelPosition=bottom;labelBackgroundColor=default;verticalAlign=top;aspect=fixed;imageAspect=0;image=data:image/svg+xml,PHN2ZyB4bWxuczp4bGluaz0iaHR0cDovL3d3dy53My5vcmcvMTk5OS94bGluayIgeG1sbnM9Imh0dHA6Ly93d3cudzMub3JnLzIwMDAvc3ZnIiB2aWV3Qm94PSIwIDAgMzIgMzIiIGhlaWdodD0iODAwcHgiIHdpZHRoPSI4MDBweCI+PGRlZnM+PGxpbmVhckdyYWRpZW50IGdyYWRpZW50VW5pdHM9InVzZXJTcGFjZU9uVXNlIiBncmFkaWVudFRyYW5zZm9ybT0ibWF0cml4KC0wLjk3NywgLTAuMzIzLCAtMC4yOSwgMC44NzcsIC0zNzUuOTQ0LCAtOTI4LjI4NykiIHkyPSI4MzkuMjUiIHgyPSItNjU0LjU5IiB5MT0iODM5LjE4OCIgeDE9Ii02NDUuNzMyIiBpZD0iYSI+PHN0b3Agc3RvcC1jb2xvcj0iIzk5OTg3NSIgb2Zmc2V0PSIwLjIzMSIvPjxzdG9wIHN0b3AtY29sb3I9IiM5Yjk5NzciIG9mZnNldD0iMC41NjMiLz48c3RvcCBzdG9wLWNvbG9yPSIjYTA5ZjdlIiBvZmZzZXQ9IjAuNjgzIi8+PHN0b3Agc3RvcC1jb2xvcj0iI2E5YTg4OSIgb2Zmc2V0PSIwLjc2OCIvPjxzdG9wIHN0b3AtY29sb3I9IiNiN2I2OWEiIG9mZnNldD0iMC44MzciLz48c3RvcCBzdG9wLWNvbG9yPSIjYzljN2IwIiBvZmZzZXQ9IjAuODk2Ii8+PHN0b3Agc3RvcC1jb2xvcj0iI2RlZGRjYiIgb2Zmc2V0PSIwLjk0OCIvPjxzdG9wIHN0b3AtY29sb3I9IiNmOGY2ZWIiIG9mZnNldD0iMC45OTQiLz48c3RvcCBzdG9wLWNvbG9yPSIjZmJmOWVmIiBvZmZzZXQ9IjEiLz48L2xpbmVhckdyYWRpZW50PjxsaW5lYXJHcmFkaWVudCBncmFkaWVudFVuaXRzPSJ1c2VyU3BhY2VPblVzZSIgZ3JhZGllbnRUcmFuc2Zvcm09Im1hdHJpeCgtMC45NzcsIC0wLjMyMywgLTAuMjksIDAuODc3LCAtMzc1Ljk0NCwgLTkyOC4yODcpIiB5Mj0iODQ1LjQ3NiIgeDI9Ii02NTcuMDI4IiB5MT0iODIzLjQwNSIgeDE9Ii02NDQuMjg3IiBpZD0iYiI+PHN0b3Agc3RvcC1jb2xvcj0iIzQ4YTU0NyIgb2Zmc2V0PSIwIi8+PHN0b3Agc3RvcC1jb2xvcj0iIzNmOTE0MyIgb2Zmc2V0PSIxIi8+PC9saW5lYXJHcmFkaWVudD48bGluZWFyR3JhZGllbnQgZ3JhZGllbnRVbml0cz0idXNlclNwYWNlT25Vc2UiIGdyYWRpZW50VHJhbnNmb3JtPSJtYXRyaXgoLTAuOTc3LCAtMC4zMjMsIC0wLjI5LCAwLjg3NywgLTM3NS45NDQsIC05MjguMjg3KSIgeTI9IjgzMy40MTciIHgyPSItNjUyLjQxOCIgeTE9IjgzOS40ODUiIHgxPSItNjQzLjM4NiIgaWQ9ImMiPjxzdG9wIHN0b3AtY29sb3I9IiM0MWEyNDciIG9mZnNldD0iMCIvPjxzdG9wIHN0b3AtY29sb3I9IiM0YmE3NGIiIG9mZnNldD0iMC4zNTIiLz48c3RvcCBzdG9wLWNvbG9yPSIjNjdiNTU0IiBvZmZzZXQ9IjAuOTU2Ii8+PHN0b3Agc3RvcC1jb2xvcj0iIzY5YjY1NSIgb2Zmc2V0PSIxIi8+PC9saW5lYXJHcmFkaWVudD48L2RlZnM+PHRpdGxlPmZpbGVfdHlwZV9tb25nbzwvdGl0bGU+PHBhdGggc3R5bGU9ImZpbGw6dXJsKCNhKSIgZD0iTTE2LjYyLDMwbC0uNzUxLS4yNDlzLjEtMy44LTEuMjc1LTQuMDY3Yy0uOS0xLjA0OC4xMzMtNDQuNzQxLDMuNDIzLS4xNDlhMi43MTIsMi43MTIsMCwwLDAtMS4zMzMsMS41MjNBMTQuMSwxNC4xLDAsMCwwLDE2LjYyLDMwWiIvPjxwYXRoIHN0eWxlPSJmaWxsOnVybCgjYikiIGQ9Ik0xNy4wMjYsMjYuMzI5YTEzLjIyMywxMy4yMjMsMCwwLDAsNS0xMy4yMjVDMjAuNTU2LDYuNjE5LDE3LjA3NSw0LjQ4NywxNi43LDMuNjczYTkuNzkyLDkuNzkyLDAsMCwxLS44MjUtMS42bC4yNzcsMTguMDY5UzE1LjU3OCwyNS42NjQsMTcuMDI2LDI2LjMyOVoiLz48cGF0aCBzdHlsZT0iZmlsbDp1cmwoI2MpIiBkPSJNMTUuNDg3LDI2LjU2OVM5LjM2NiwyMi40LDkuNzIsMTUuMDI1QTE1LjU0LDE1LjU0LDAsMCwxLDE1LjIzOSwzLjM3NywxLjcyNSwxLjcyNSwwLDAsMCwxNS44NDYsMmMuMzgxLjgyLjMxOSwxMi4yNDMuMzU5LDEzLjU3OUMxNi4zNiwyMC43NzYsMTUuOTE2LDI1LjU4OCwxNS40ODcsMjYuNTY5WiIvPjwvc3ZnPg==;imageBorder=default;" parent="1" vertex="1">
          <mxGeometry x="375" y="100" width="50" height="50" as="geometry" />
        </mxCell>
        <mxCell id="yNPfiVlO1QsKJ9p5I-RB-2" value="" style="shape=image;verticalLabelPosition=bottom;labelBackgroundColor=default;verticalAlign=top;aspect=fixed;imageAspect=0;image=data:image/svg+xml,PHN2ZyB4bWxucz0iaHR0cDovL3d3dy53My5vcmcvMjAwMC9zdmciIGZpbGw9Im5vbmUiIHZpZXdCb3g9IjAgMCAxNiAxNiIgaGVpZ2h0PSI4MDBweCIgd2lkdGg9IjgwMHB4Ij48cGF0aCBkPSJNMTMuOTg1IDcuMTc1YTQuNDA4IDQuNDA4IDAgMDAtLjEzOC0uODAyIDUuMDM1IDUuMDM1IDAgMDAtMS4wNTQtMS45OTggMi45NiAyLjk2IDAgMDAtLjM2Ni0uMzkzYy4xOTgtLjc4Ny0uMjQ1LTEuNDY4LS4yNDUtMS40NjgtLjc2NC0uMDQ2LTEuMjM3LjIyNy0xLjQyLjM2My0uMDMxLS4wMTUtLjA2Mi0uMDMtLjA5Mi0uMDMtLjEyMi0uMDQ2LS4yNi0uMTA2LS4zOTctLjEzNy0uMTM4LS4wNDUtLjI3NS0uMDc1LS40MTMtLjEyLS4xMzctLjAzMS0uMjktLjA2MS0uNDQzLS4wOTItLjAzIDAtLjA0NiAwLS4wNzYtLjAxNUM5LjAwNSAxLjQ0IDguMDU4IDEgOC4wNTggMSA3LjAwNCAxLjY2NiA2Ljc5IDIuNjA0IDYuNzkgMi42MDRzMCAuMDE1LS4wMTYuMDZsLS4xODMuMDQ2Yy0uMDc2LjAzLS4xNjguMDYtLjI0NC4wNzYtLjA3Ny4wMy0uMTY4LjA2LS4yNDUuMDktLjE1My4wNzYtLjMyLjE1Mi0uNDczLjIyOC0uMTUzLjA5LS4zMDYuMTgxLS40NDMuMjcyLS4wMTYtLjAxNS0uMDMtLjAxNS0uMDMtLjAxNS0xLjQ2Ny0uNTQ1LTIuNzY2LjEzNi0yLjc2Ni4xMzYtLjEyMiAxLjU0NC41OCAyLjUyOC43MzMgMi43MS0uMDMuMDktLjA2LjE5Ni0uMDkxLjI4N2E4LjEwNCA4LjEwNCAwIDAwLS4yNDUgMS4wOWMwIC4wNi0uMDE1LjEwNi0uMDE1LjE2NkMxLjM5NyA4LjM4NiAxIDkuNzQ4IDEgOS43NDhjMS4xMyAxLjI4NyAyLjQ2IDEuMzc3IDIuNDYgMS4zNzcuMTY3LjMwMy4zNjYuNTc1LjU4Ljg0OC4wOTIuMTA2LjE4My4yMTIuMjkuMzE4YTMuMDE0IDMuMDE0IDAgMDAuMDYxIDIuMTQ5YzEuMjY4LjA0NSAyLjA5My0uNTQ1IDIuMjYxLS42ODEuMTIyLjA0NS4yNi4wNzYuMzgyLjEwNi4zODIuMTA2Ljc4LjE1MSAxLjE3Ni4xODFoLjQ5Yy41OTUuODQ4IDEuNjM0Ljk1NCAxLjYzNC45NTQuNzQ4LS43NzIuNzc5LTEuNTQ0Ljc3OS0xLjcxdi0uMDE1LS4wMy0uMDNjLjE1My0uMTA3LjMwNS0uMjI4LjQ0My0uMzVhNS4zNyA1LjM3IDAgMDAuNzc5LS44OTJjLjAxNS0uMDMuMDQ2LS4wNi4wNjEtLjA5Ljg0LjA0NSAxLjQzNi0uNTE1IDEuNDM2LS41MTUtLjEzOC0uODYzLS42NDItMS4yODctLjc0OS0xLjM3OGwtLjAxNS0uMDE1aC0uMDE1cy0uMDE1IDAtLjAxNS0uMDE1YzAtLjA0NS4wMTUtLjEwNi4wMTUtLjE1MSAwLS4wOTEuMDE1LS4xODIuMDE1LS4yODhWOS40di0uMTY2LS4wNzYtLjE1MmwtLjAxNS0uMDc1Yy0uMDE1LS4wOTEtLjAzLS4xOTctLjA2MS0uMjg4YTMuNTA2IDMuNTA2IDAgMDAtLjQyOC0xLjA0NCAzLjg1NiAzLjg1NiAwIDAwLS43MTgtLjg0OCAzLjc4NCAzLjc4NCAwIDAwLS45MDEtLjU3NSAzLjM0NyAzLjM0NyAwIDAwLS45OTMtLjI3MmMtLjE2OC0uMDE1LS4zMzYtLjAzLS41MDQtLjAzSDkuMzcgOS4yMDRjLS4wOTIuMDE1LS4xNjkuMDE1LS4yNi4wMy0uMzM2LjA2LS42NDIuMTgxLS45MzIuMzQ4LS4yNzUuMTY2LS41Mi4zNjMtLjcxOC42MDVhMi41NzkgMi41NzkgMCAwMC0uNDU5Ljc1NyAyLjYzIDIuNjMgMCAwMC0uMTgzLjgxN3YuMzkzYy4wMTUuMTM3LjA0Ni4yNzMuMDc3LjM5NC4wNzYuMjU4LjE4My40ODUuMzM2LjY2Ni4xMzcuMTk3LjMyLjM0OC41MDQuNDg1LjE4My4xMi4zODIuMjEyLjU4LjI3Mi4xOTkuMDYuMzgyLjA3Ni41NjUuMDc2aC4yNDRjLjAzMSAwIC4wNDcgMCAuMDYyLS4wMTUuMDE1IDAgLjA0Ni0uMDE1LjA2MS0uMDE1LjA0Ni0uMDE2LjA3Ni0uMDE2LjEyMi0uMDNsLjIzLS4wOTJhLjg2OS44NjkgMCAwMC4xOTgtLjEyYy4wMTUtLjAxNi4wMy0uMDMuMDQ2LS4wM2EuMTI5LjEyOSAwIDAwLjAxNS0uMTk4Yy0uMDQ2LS4wNi0uMTIyLS4wNzUtLjE4My0uMDMtLjAxNS4wMTUtLjAzLjAxNS0uMDQ2LjAzLS4wNDYuMDMtLjEwNy4wNDYtLjE2OC4wNmwtLjE4My4wNDZjLS4wMyAwLS4wNjEuMDE1LS4wOTIuMDE1SDguNzNhMS41MTkgMS41MTkgMCAwMS0uODI1LS4zNzggMS40NTIgMS40NTIgMCAwMS0uMzA2LS4zNzggMS42NTUgMS42NTUgMCAwMS0uMTY4LS40ODVjLS4wMTUtLjA5LS4wMTUtLjE2Ni0uMDE1LS4yNTd2LS4xMDYtLjAzYzAtLjA0Ni4wMTUtLjA5MS4wMTUtLjEzNi4wNjEtLjM2NC4yNi0uNzI3LjU1LTEgLjA3Ny0uMDc1LjE1My0uMTM2LjIzLS4xODEuMDc2LS4wNi4xNjctLjEwNi4yNTktLjE1MS4wOTItLjA0Ni4xODMtLjA3Ni4yOS0uMTA2YS45OTMuOTkzIDAgMDEuMzA2LS4wNDZoLjMyMWMuMTA3LjAxNS4yMjkuMDMuMzM2LjA0Ni4yMTQuMDQ1LjQyNy4xMi42MjYuMjQyLjM5Ny4yMTIuNzMzLjU2Ljk0Ny45NjkuMTA3LjIxMS4xODMuNDIzLjIxNC42NS4wMTUuMDYuMDE1LjEyMS4wMTUuMTY3di4zNjNjMCAuMDYtLjAxNS4xMjEtLjAxNS4xODIgMCAuMDYtLjAxNS4xMi0uMDMuMTgxbC0uMDQ2LjE4MmMtLjAzLjEyMS0uMDc3LjI0Mi0uMTIzLjM2M2EzLjE4MyAzLjE4MyAwIDAxLS4zNjYuNjY2IDMuMDAyIDMuMDAyIDAgMDEtMS45MSAxLjE4Yy0uMTIyLjAxNi0uMjYuMDMtLjM4Mi4wNDZoLS4xOThjLS4wNjEgMC0uMTM4IDAtLjE5OS0uMDE1YTMuNjM3IDMuNjM3IDAgMDEtLjgxLS4xNTEgNC4wNjggNC4wNjggMCAwMS0uNzQ4LS4zMDMgNC4wOTggNC4wOTggMCAwMS0xLjY5Ni0xLjY5NSA0LjM5OCA0LjM5OCAwIDAxLS4yOS0uNzQyYy0uMDc2LS4yNTctLjEwNy0uNTE0LS4xMzctLjc3MnYtLjMwMi0uMDkxYzAtLjEzNi4wMTUtLjI1OC4wMy0uMzk0cy4wNDYtLjI3Mi4wNjEtLjM5M2MuMDMtLjEzNy4wNjEtLjI1OC4wOTItLjM5NGE1LjMzIDUuMzMgMCAwMS4yNzUtLjc0MWMuMjE0LS40Ny41MDQtLjg5My44NTUtMS4yMjYuMDkyLS4wOTEuMTg0LS4xNjcuMjc1LS4yNDMuMDkyLS4wNzUuMTg0LS4xMzYuMjktLjIxMWE1LjM5IDUuMzkgMCAwMS4zMDYtLjE4MmMuMDQ2LS4wMy4xMDctLjA0NS4xNTMtLjA3NmEuMjYuMjYgMCAwMS4wNzYtLjAzLjI2LjI2IDAgMDEuMDc3LS4wM2MuMTA3LS4wNDYuMjI5LS4wOTEuMzM2LS4xMjEuMDMtLjAxNS4wNi0uMDE1LjA5MS0uMDMuMDMtLjAxNi4wNjEtLjAxNi4wOTItLjAzLjA2MS0uMDE2LjEyMi0uMDMxLjE2OC0uMDQ2LjAzLS4wMTUuMDYxLS4wMTUuMDkyLS4wMTUuMDMgMCAuMDYtLjAxNi4wOTEtLjAxNi4wMyAwIC4wNjEtLjAxNS4wOTItLjAxNWwuMDQ2LS4wMTVoLjA0NmMuMDMgMCAuMDYtLjAxNS4wOTEtLjAxNS4wMyAwIC4wNjEtLjAxNS4xMDctLjAxNS4wMyAwIC4wNzctLjAxNS4xMDctLjAxNWguNzY0Yy4yMy4wMTUuNDQzLjAzLjY1Ny4wNzUuNDI4LjA3Ni44NC4yMTIgMS4yMDcuMzk0LjM2Ni4xODIuNzAyLjM5My45NzcuNjM2bC4wNDYuMDQ1LjA0Ni4wNDVjLjAzLjAzLjA2MS4wNjEuMTA3LjA5MWwuMDkyLjA5MS4wOTEuMDljLjEyMy4xMjIuMjMuMjU4LjMzNi4zOTQuMTk5LjI1OC4zNjcuNTE1LjQ5Ljc3Mi4wMTQuMDE1LjAxNC4wMy4wMy4wNDYuMDE1LjAxNS4wMTUuMDMuMDE1LjA0NWwuMDQ2LjA5LjA0Ni4wOTIuMDQ1LjA5Yy4wNDYuMTIyLjA5Mi4yMjguMTIzLjMzMy4wNi4xNjcuMTA3LjMxOC4xMzcuNDU1LjAxNS4wNDUuMDYxLjA5LjEyMi4wNzVhLjEwNC4xMDQgMCAwMC4xMDctLjEwNmMuMDkyLS4yMjcuMDkyLS4zOTMuMDc3LS41NzV6IiBmaWxsPSJ1cmwoI2dyYWZhbmEtY29sb3ItMTZfX3BhaW50MF9saW5lYXJfMjM3Ml8zNjQpIi8+PGRlZnM+PGxpbmVhckdyYWRpZW50IGdyYWRpZW50VW5pdHM9InVzZXJTcGFjZU9uVXNlIiB5Mj0iNS4zNTYiIHkxPSIxOC4xNDIiIHgyPSI3LjUwMiIgeDE9IjcuNTAyIiBpZD0iZ3JhZmFuYS1jb2xvci0xNl9fcGFpbnQwX2xpbmVhcl8yMzcyXzM2NCI+PHN0b3Agc3RvcC1jb2xvcj0iI0ZGRjIwMCIvPjxzdG9wIHN0b3AtY29sb3I9IiNGMTVBMjkiIG9mZnNldD0iMSIvPjwvbGluZWFyR3JhZGllbnQ+PC9kZWZzPjwvc3ZnPg==;imageBorder=default;imageBackground=none;" parent="1" vertex="1">
          <mxGeometry x="240" y="340" width="50" height="50" as="geometry" />
        </mxCell>
        <mxCell id="yNPfiVlO1QsKJ9p5I-RB-6" style="edgeStyle=orthogonalEdgeStyle;rounded=0;orthogonalLoop=1;jettySize=auto;html=1;exitX=1;exitY=0.5;exitDx=0;exitDy=0;flowAnimation=1;" parent="1" source="yNPfiVlO1QsKJ9p5I-RB-4" target="nROc9CFbH06EN1Bde7F_-2" edge="1">
          <mxGeometry relative="1" as="geometry" />
        </mxCell>
        <mxCell id="yNPfiVlO1QsKJ9p5I-RB-4" value="" style="shape=image;verticalLabelPosition=bottom;labelBackgroundColor=default;verticalAlign=top;aspect=fixed;imageAspect=0;image=data:image/svg+xml,PHN2ZyB4bWxuczp4bGluaz0iaHR0cDovL3d3dy53My5vcmcvMTk5OS94bGluayIgeG1sbnM9Imh0dHA6Ly93d3cudzMub3JnLzIwMDAvc3ZnIiBwcmVzZXJ2ZUFzcGVjdFJhdGlvPSJ4TWlkWU1pZCIgdmVyc2lvbj0iMS4xIiB2aWV3Qm94PSIwIC0xOCAyNTYgMjU2IiBoZWlnaHQ9IjgwMHB4IiB3aWR0aD0iODAwcHgiPiYjeGE7ICAgIDxnPiYjeGE7ICAgICAgICA8cGF0aCBmaWxsPSIjOTEyNjI2IiBkPSJNMjQ1Ljk2OTY4NywxNjguOTQzMjU2IEMyMzIuMzA4MjU5LDE3Ni4wNjQ0NzkgMTYxLjUzNjA0OCwyMDUuMTYzMzg4IDE0Ni40Njg1NzcsMjEzLjAxNzYzMyBDMTMxLjQwMjEwNywyMjAuODczODc5IDEyMy4wMzE4NDQsMjIwLjc5Nzg3NiAxMTEuMTI5NDczLDIxNS4xMDc2OTkgQzk5LjIyNzEwMDcsMjA5LjQxNzUyMSAyMy45MTI3NDczLDE3OC45OTU1NyAxMC4zNDYzMjM0LDE3Mi41MTEzNjggQzMuNTY1MTExNDEsMTY5LjI3MDI2NyAwLDE2Ni41MzUxODEgMCwxNjMuOTUxMSBMMCwxMzguMDc1MjkyIEMwLDEzOC4wNzUyOTIgOTguMDQ5MDYzOSwxMTYuNzI5NjI1IDExMy44Nzg1NTksMTExLjA1MTQ0NyBDMTI5LjcwNzA1MywxMDUuMzcyMjY5IDEzNS4xOTkyMjUsMTA1LjE2NzI2NCAxNDguNjY5NjQ2LDExMC4xMDE0MTggQzE2Mi4xNDEwNjcsMTE1LjAzNjU3MiAyNDIuNjg2NTgzLDEyOS41NjkwMjYgMjU2LDEzNC40NDUxNzggQzI1NiwxMzQuNDQ1MTc4IDI1NS45OTM5OTksMTU3LjU1NTkgMjU1Ljk5Mzk5OSwxNTkuOTU0OTc1IEMyNTUuOTk2LDE2Mi41MTMwNTUgMjUyLjkyMzkwNCwxNjUuMzE5MTQzIDI0NS45Njk2ODcsMTY4Ljk0MzI1NiI+JiN4YTsmI3hhOzwvcGF0aD4mI3hhOyAgICAgICAgPHBhdGggZmlsbD0iI0M2MzAyQiIgZD0iTTI0NS45NjQ5MjIsMTQzLjIyMDA2NyBDMjMyLjMwMzkzNSwxNTAuMzM4MDYgMTYxLjUzNDAwMywxNzkuNDM4MDMyIDE0Ni40NjcwMTcsMTg3LjI5MjAyNCBDMTMxLjQwMTAzMSwxOTUuMTQ5MDE4IDEyMy4wMzEwMzksMTk1LjA3MjAxNyAxMTEuMTI5MDUsMTg5LjM4MjAyMyBDOTkuMjI2MDYxOCwxODMuNjk2MDI4IDIzLjkxNTEzMzYsMTUzLjI2OTA1NyAxMC4zNDkxNDY2LDE0Ni43ODgwNjMgQy0zLjIxNjg0MDUzLDE0MC4zMDMwNjkgLTMuNTAxODQwMjYsMTM1Ljg0MDA3NCA5LjgyNTE0NzA1LDEzMC42MjIwNzkgQzIzLjE1MTEzNDMsMTI1LjQwMjA4NCA5OC4wNDkwNjI5LDk2LjAxNzExMTcgMTEzLjg4MDA0Nyw5MC4zMzgxMTcyIEMxMjkuNzA4MDMzLDg0LjY2MTEyMjYgMTM1LjE5OTAyOCw4NC40NTQxMjI4IDE0OC42NjkwMTQsODkuMzkwMTE4MSBDMTYyLjE0MDAwMiw5NC4zMjQxMTM0IDIzMi40ODc5MzUsMTIyLjMyNTA4NyAyNDUuNzk5OTIyLDEyNy4yMDAwODIgQzI1OS4xMTQ5MSwxMzIuMDgxMDc4IDI1OS42MjU5MDgsMTM2LjA5OTA3MyAyNDUuOTY0OTIyLDE0My4yMjAwNjciPiYjeGE7JiN4YTs8L3BhdGg+JiN4YTsgICAgICAgIDxwYXRoIGZpbGw9IiM5MTI2MjYiIGQ9Ik0yNDUuOTY5Njg3LDEyNy4wNzQzNTQgQzIzMi4zMDgyNTksMTM0LjE5NTU3NyAxNjEuNTM2MDQ4LDE2My4yOTQ0ODYgMTQ2LjQ2ODU3NywxNzEuMTUxNzMyIEMxMzEuNDAyMTA3LDE3OS4wMDQ5NzcgMTIzLjAzMTg0NCwxNzguOTI4OTc1IDExMS4xMjk0NzMsMTczLjIzODc5NyBDOTkuMjI2MTAwNywxNjcuNTUxNjE5IDIzLjkxMjc0NzMsMTM3LjEyNjY2OCAxMC4zNDYzMjM0LDEzMC42NDI0NjUgQzMuNTY1MTExNDEsMTI3LjQwMTM2NCAwLDEyNC42NjkyNzkgMCwxMjIuMDg1MTk5IEwwLDk2LjIwNjM4OTUgQzAsOTYuMjA2Mzg5NSA5OC4wNDkwNjM5LDc0Ljg2MTcyMjYgMTEzLjg3ODU1OSw2OS4xODI1NDUgQzEyOS43MDcwNTMsNjMuNTA0MzY3NiAxMzUuMTk5MjI1LDYzLjI5ODM2MTIgMTQ4LjY2OTY0Niw2OC4yMzI1MTU0IEMxNjIuMTQxMDY3LDczLjE2NzY2OTcgMjQyLjY4NjU4Myw4Ny42OTcxMjM3IDI1Niw5Mi41NzQyNzYxIEMyNTYsOTIuNTc0Mjc2MSAyNTUuOTkzOTk5LDExNS42ODQ5OTggMjU1Ljk5Mzk5OSwxMTguMDg3MDczIEMyNTUuOTk2LDEyMC42NDQxNTMgMjUyLjkyMzkwNCwxMjMuNDUwMjQxIDI0NS45Njk2ODcsMTI3LjA3NDM1NCI+JiN4YTsmI3hhOzwvcGF0aD4mI3hhOyAgICAgICAgPHBhdGggZmlsbD0iI0M2MzAyQiIgZD0iTTI0NS45NjQ5MjIsMTAxLjM1MTE2NCBDMjMyLjMwMzkzNSwxMDguNDcxMTU3IDE2MS41MzQwMDMsMTM3LjU2OTEyOSAxNDYuNDY3MDE3LDE0NS40MjYxMjIgQzEzMS40MDEwMzEsMTUzLjI4MDExNCAxMjMuMDMxMDM5LDE1My4yMDMxMTQgMTExLjEyOTA1LDE0Ny41MTMxMiBDOTkuMjI2MDYxOCwxNDEuODI3MTI1IDIzLjkxNTEzMzYsMTExLjQwMTE1NCAxMC4zNDkxNDY2LDEwNC45MTkxNiBDLTMuMjE2ODQwNTMsOTguNDM2MTY2NCAtMy41MDE4NDAyNiw5My45NzIxNzA2IDkuODI1MTQ3MDUsODguNzUyMTc1NiBDMjMuMTUxMTM0Myw4My41MzUxODA2IDk4LjA0OTA2MjksNTQuMTQ4MjA4NyAxMTMuODgwMDQ3LDQ4LjQ3MDIxNDEgQzEyOS43MDgwMzMsNDIuNzkyMjE5NSAxMzUuMTk5MDI4LDQyLjU4NjIxOTcgMTQ4LjY2OTAxNCw0Ny41MjEyMTUgQzE2Mi4xNDAwMDIsNTIuNDU1MjEwMiAyMzIuNDg3OTM1LDgwLjQ1NDE4MzUgMjQ1Ljc5OTkyMiw4NS4zMzExNzg5IEMyNTkuMTE0OTEsOTAuMjEwMTc0MiAyNTkuNjI1OTA4LDk0LjIzMDE3MDQgMjQ1Ljk2NDkyMiwxMDEuMzUwMTYzIEwyNDUuOTY0OTIyLDEwMS4zNTExNjQiPiYjeGE7JiN4YTs8L3BhdGg+JiN4YTsgICAgICAgIDxwYXRoIGZpbGw9IiM5MTI2MjYiIGQ9Ik0yNDUuOTY5Njg3LDgzLjY1MjU2NjEgQzIzMi4zMDgyNTksOTAuNzczNzg4NyAxNjEuNTM2MDQ4LDExOS44NzM2OTggMTQ2LjQ2ODU3NywxMjcuNzMwOTQ0IEMxMzEuNDAyMTA3LDEzNS41ODUxODkgMTIzLjAzMTg0NCwxMzUuNTA4MTg3IDExMS4xMjk0NzMsMTI5LjgxODAwOCBDOTkuMjI2MTAwNywxMjQuMTMwODMxIDIzLjkxMjc0NzMsOTMuNzA0ODgwMiAxMC4zNDYzMjM0LDg3LjIyMjY3NzcgQzMuNTY1MTExNDEsODMuOTgwNTc2NCAwLDgxLjI0NzQ5MDkgMCw3OC42NjU0MTAyIEwwLDUyLjc4NTYwMTUgQzAsNTIuNzg1NjAxNSA5OC4wNDkwNjM5LDMxLjQ0MTkzNDUgMTEzLjg3ODU1OSwyNS43NjM3NTcxIEMxMjkuNzA3MDUzLDIwLjA4NDU3OTcgMTM1LjE5OTIyNSwxOS44Nzk1NzMzIDE0OC42Njk2NDYsMjQuODEzNzI3NSBDMTYyLjE0MTA2NywyOS43NDg4ODE3IDI0Mi42ODY1ODMsNDQuMjc4MzM1NyAyNTYsNDkuMTU1NDg4MSBDMjU2LDQ5LjE1NTQ4ODEgMjU1Ljk5Mzk5OSw3Mi4yNjYyMTAzIDI1NS45OTM5OTksNzQuNjY3Mjg1MyBDMjU1Ljk5Niw3Ny4yMjIzNjUyIDI1Mi45MjM5MDQsODAuMDI4NDUyOCAyNDUuOTY5Njg3LDgzLjY1MjU2NjEiPiYjeGE7JiN4YTs8L3BhdGg+JiN4YTsgICAgICAgIDxwYXRoIGZpbGw9IiNDNjMwMkIiIGQ9Ik0yNDUuOTY0OTIyLDU3LjkyOTM4NyBDMjMyLjMwMzkzNSw2NS4wNDkzODAyIDE2MS41MzQwMDMsOTQuMTQ5MzUyNCAxNDYuNDY3MDE3LDEwMi4wMDQzNDUgQzEzMS40MDEwMzEsMTA5Ljg1ODMzOCAxMjMuMDMxMDM5LDEwOS43ODEzMzggMTExLjEyOTA1LDEwNC4wOTMzNDMgQzk5LjIyNzA2MTcsOTguNDA1MzQ4NCAyMy45MTUxMzM2LDY3Ljk4MTM3NzMgMTAuMzQ5MTQ2Niw2MS40OTgzODM2IEMtMy4yMTY4NDA1Myw1NS4wMTUzODk4IC0zLjUwMTg0MDI2LDUwLjU1MDM5NCA5LjgyNTE0NzA1LDQ1LjMzMTM5OSBDMjMuMTUxMTM0Myw0MC4xMTM0MDQgOTguMDQ5MDYyOSwxMC43Mjk0MzIgMTEzLjg4MDA0Nyw1LjA0OTQzNzQ0IEMxMjkuNzA4MDMzLC0wLjYyOTU1NzE0OCAxMzUuMTk5MDI4LC0wLjgzMzU1Njk1MyAxNDguNjY5MDE0LDQuMTAxNDM4MzQgQzE2Mi4xNDAwMDIsOS4wMzY0MzM2MyAyMzIuNDg3OTM1LDM3LjAzNTQwNjkgMjQ1Ljc5OTkyMiw0MS45MTI0MDIyIEMyNTkuMTE0OTEsNDYuNzg4Mzk3NiAyNTkuNjI1OTA4LDUwLjgwOTM5MzggMjQ1Ljk2NDkyMiw1Ny45MjkzODciPiYjeGE7JiN4YTs8L3BhdGg+JiN4YTsgICAgICAgIDxwYXRoIGZpbGw9IiNGRkZGRkYiIGQ9Ik0xNTkuMjgyOTc3LDMyLjc1NzA4NTMgTDEzNy4yNzM5MjIsMzUuMDQyMjMyNiBMMTMyLjM0NjQxOSw0Ni44OTc2MTI0IEwxMjQuMzg3NTk3LDMzLjY2Nzk2OSBMOTguOTczMTQ3LDMxLjM4MzgxNCBMMTE3LjkzNjk5MiwyNC41NDUyNDAzIEwxMTIuMjQ3NDQyLDE0LjA0NzI1NTggTDEzMC4wMDE3MzYsMjAuOTkxMDA3OCBMMTQ2LjczOTk2OSwxNS41MTA4MjE3IEwxNDIuMjE2MzEsMjYuMzY2MDE1NSBMMTU5LjI4Mjk3NywzMi43NTcwODUzIj4mI3hhOyYjeGE7PC9wYXRoPiYjeGE7ICAgICAgICA8cGF0aCBmaWxsPSIjRkZGRkZGIiBkPSJNMTMxLjAzMTY5LDkwLjI3NDcyODcgTDg5Ljk1NDYwNDcsNzMuMjM3ODI5NSBMMTQ4LjgxNTc1Miw2NC4yMDM0MTA5IEwxMzEuMDMxNjksOTAuMjc0NzI4NyI+JiN4YTsmI3hhOzwvcGF0aD4mI3hhOyAgICAgICAgPHBhdGggZmlsbD0iI0ZGRkZGRiIgZD0iTTc0LjA4MTYxMjQsMzkuMzQ2NjA0NyBDOTEuNDU2ODY4MiwzOS4zNDY2MDQ3IDEwNS41NDE4MjksNDQuODA2OTQ1NyAxMDUuNTQxODI5LDUxLjU0MTMzMzMgQzEwNS41NDE4MjksNTguMjc2NzEzMiA5MS40NTY4NjgyLDYzLjczNjA2MiA3NC4wODE2MTI0LDYzLjczNjA2MiBDNTYuNzA3MzQ4OCw2My43MzYwNjIgNDIuNjIxMzk1Myw1OC4yNzY3MTMyIDQyLjYyMTM5NTMsNTEuNTQxMzMzMyBDNDIuNjIxMzk1Myw0NC44MDY5NDU3IDU2LjcwNzM0ODgsMzkuMzQ2NjA0NyA3NC4wODE2MTI0LDM5LjM0NjYwNDciPiYjeGE7JiN4YTs8L3BhdGg+JiN4YTsgICAgICAgIDxwYXRoIGZpbGw9IiM2MjFCMUMiIGQ9Ik0xODUuMjk0NzYsMzUuOTk3NzY3NCBMMjIwLjEzMDYwNSw0OS43NjQyMTcxIEwxODUuMzI0NTI3LDYzLjUxNjc3NTIgTDE4NS4yOTQ3NiwzNS45OTc3Njc0Ij4mI3hhOyYjeGE7PC9wYXRoPiYjeGE7ICAgICAgICA8cGF0aCBmaWxsPSIjOUEyOTI4IiBkPSJNMTQ2Ljc1NDg1Myw1MS4yNDI2NjY3IEwxODUuMjk0NzYsMzUuOTk3NzY3NCBMMTg1LjMyNDUyNyw2My41MTY3NzUyIEwxODEuNTQ2MDQ3LDY0Ljk5NTIyNDggTDE0Ni43NTQ4NTMsNTEuMjQyNjY2NyI+JiN4YTsmI3hhOzwvcGF0aD4mI3hhOyAgICA8L2c+JiN4YTs8L3N2Zz4=;" parent="1" vertex="1">
          <mxGeometry x="240" y="235" width="50" height="50" as="geometry" />
        </mxCell>
        <mxCell id="xGDjlDLxAqylIo2OS0dg-4" style="edgeStyle=orthogonalEdgeStyle;rounded=0;orthogonalLoop=1;jettySize=auto;html=1;exitX=0.5;exitY=1;exitDx=0;exitDy=0;entryX=1;entryY=0.5;entryDx=0;entryDy=0;flowAnimation=1;" parent="1" source="yNPfiVlO1QsKJ9p5I-RB-10" target="yNPfiVlO1QsKJ9p5I-RB-2" edge="1">
          <mxGeometry relative="1" as="geometry" />
        </mxCell>
        <mxCell id="xGDjlDLxAqylIo2OS0dg-5" style="edgeStyle=orthogonalEdgeStyle;rounded=0;orthogonalLoop=1;jettySize=auto;html=1;exitX=0.5;exitY=0;exitDx=0;exitDy=0;entryX=1;entryY=0.5;entryDx=0;entryDy=0;flowAnimation=1;" parent="1" source="yNPfiVlO1QsKJ9p5I-RB-10" target="yNPfiVlO1QsKJ9p5I-RB-1" edge="1">
          <mxGeometry relative="1" as="geometry" />
        </mxCell>
        <mxCell id="xGDjlDLxAqylIo2OS0dg-6" value="TRADES" style="edgeLabel;html=1;align=center;verticalAlign=middle;resizable=0;points=[];" parent="xGDjlDLxAqylIo2OS0dg-5" vertex="1" connectable="0">
          <mxGeometry x="-0.7091" y="-1" relative="1" as="geometry">
            <mxPoint as="offset" />
          </mxGeometry>
        </mxCell>
        <mxCell id="yNPfiVlO1QsKJ9p5I-RB-10" value="Execution Engine" style="whiteSpace=wrap;html=1;align=center;" parent="1" vertex="1">
          <mxGeometry x="610" y="240" width="100" height="40" as="geometry" />
        </mxCell>
        <mxCell id="xGDjlDLxAqylIo2OS0dg-1" value="" style="shape=image;verticalLabelPosition=bottom;labelBackgroundColor=default;verticalAlign=top;aspect=fixed;imageAspect=0;image=data:image/svg+xml,PHN2ZyB4bWxuczp4bGluaz0iaHR0cDovL3d3dy53My5vcmcvMTk5OS94bGluayIgeG1sbnM9Imh0dHA6Ly93d3cudzMub3JnLzIwMDAvc3ZnIiBwcmVzZXJ2ZUFzcGVjdFJhdGlvPSJ4TWlkWU1pZCIgdmVyc2lvbj0iMS4xIiB2aWV3Qm94PSIwIC0xOCAyNTYgMjU2IiBoZWlnaHQ9IjgwMHB4IiB3aWR0aD0iODAwcHgiPiYjeGE7ICAgIDxnPiYjeGE7ICAgICAgICA8cGF0aCBmaWxsPSIjOTEyNjI2IiBkPSJNMjQ1Ljk2OTY4NywxNjguOTQzMjU2IEMyMzIuMzA4MjU5LDE3Ni4wNjQ0NzkgMTYxLjUzNjA0OCwyMDUuMTYzMzg4IDE0Ni40Njg1NzcsMjEzLjAxNzYzMyBDMTMxLjQwMjEwNywyMjAuODczODc5IDEyMy4wMzE4NDQsMjIwLjc5Nzg3NiAxMTEuMTI5NDczLDIxNS4xMDc2OTkgQzk5LjIyNzEwMDcsMjA5LjQxNzUyMSAyMy45MTI3NDczLDE3OC45OTU1NyAxMC4zNDYzMjM0LDE3Mi41MTEzNjggQzMuNTY1MTExNDEsMTY5LjI3MDI2NyAwLDE2Ni41MzUxODEgMCwxNjMuOTUxMSBMMCwxMzguMDc1MjkyIEMwLDEzOC4wNzUyOTIgOTguMDQ5MDYzOSwxMTYuNzI5NjI1IDExMy44Nzg1NTksMTExLjA1MTQ0NyBDMTI5LjcwNzA1MywxMDUuMzcyMjY5IDEzNS4xOTkyMjUsMTA1LjE2NzI2NCAxNDguNjY5NjQ2LDExMC4xMDE0MTggQzE2Mi4xNDEwNjcsMTE1LjAzNjU3MiAyNDIuNjg2NTgzLDEyOS41NjkwMjYgMjU2LDEzNC40NDUxNzggQzI1NiwxMzQuNDQ1MTc4IDI1NS45OTM5OTksMTU3LjU1NTkgMjU1Ljk5Mzk5OSwxNTkuOTU0OTc1IEMyNTUuOTk2LDE2Mi41MTMwNTUgMjUyLjkyMzkwNCwxNjUuMzE5MTQzIDI0NS45Njk2ODcsMTY4Ljk0MzI1NiI+JiN4YTsmI3hhOzwvcGF0aD4mI3hhOyAgICAgICAgPHBhdGggZmlsbD0iI0M2MzAyQiIgZD0iTTI0NS45NjQ5MjIsMTQzLjIyMDA2NyBDMjMyLjMwMzkzNSwxNTAuMzM4MDYgMTYxLjUzNDAwMywxNzkuNDM4MDMyIDE0Ni40NjcwMTcsMTg3LjI5MjAyNCBDMTMxLjQwMTAzMSwxOTUuMTQ5MDE4IDEyMy4wMzEwMzksMTk1LjA3MjAxNyAxMTEuMTI5MDUsMTg5LjM4MjAyMyBDOTkuMjI2MDYxOCwxODMuNjk2MDI4IDIzLjkxNTEzMzYsMTUzLjI2OTA1NyAxMC4zNDkxNDY2LDE0Ni43ODgwNjMgQy0zLjIxNjg0MDUzLDE0MC4zMDMwNjkgLTMuNTAxODQwMjYsMTM1Ljg0MDA3NCA5LjgyNTE0NzA1LDEzMC42MjIwNzkgQzIzLjE1MTEzNDMsMTI1LjQwMjA4NCA5OC4wNDkwNjI5LDk2LjAxNzExMTcgMTEzLjg4MDA0Nyw5MC4zMzgxMTcyIEMxMjkuNzA4MDMzLDg0LjY2MTEyMjYgMTM1LjE5OTAyOCw4NC40NTQxMjI4IDE0OC42NjkwMTQsODkuMzkwMTE4MSBDMTYyLjE0MDAwMiw5NC4zMjQxMTM0IDIzMi40ODc5MzUsMTIyLjMyNTA4NyAyNDUuNzk5OTIyLDEyNy4yMDAwODIgQzI1OS4xMTQ5MSwxMzIuMDgxMDc4IDI1OS42MjU5MDgsMTM2LjA5OTA3MyAyNDUuOTY0OTIyLDE0My4yMjAwNjciPiYjeGE7JiN4YTs8L3BhdGg+JiN4YTsgICAgICAgIDxwYXRoIGZpbGw9IiM5MTI2MjYiIGQ9Ik0yNDUuOTY5Njg3LDEyNy4wNzQzNTQgQzIzMi4zMDgyNTksMTM0LjE5NTU3NyAxNjEuNTM2MDQ4LDE2My4yOTQ0ODYgMTQ2LjQ2ODU3NywxNzEuMTUxNzMyIEMxMzEuNDAyMTA3LDE3OS4wMDQ5NzcgMTIzLjAzMTg0NCwxNzguOTI4OTc1IDExMS4xMjk0NzMsMTczLjIzODc5NyBDOTkuMjI2MTAwNywxNjcuNTUxNjE5IDIzLjkxMjc0NzMsMTM3LjEyNjY2OCAxMC4zNDYzMjM0LDEzMC42NDI0NjUgQzMuNTY1MTExNDEsMTI3LjQwMTM2NCAwLDEyNC42NjkyNzkgMCwxMjIuMDg1MTk5IEwwLDk2LjIwNjM4OTUgQzAsOTYuMjA2Mzg5NSA5OC4wNDkwNjM5LDc0Ljg2MTcyMjYgMTEzLjg3ODU1OSw2OS4xODI1NDUgQzEyOS43MDcwNTMsNjMuNTA0MzY3NiAxMzUuMTk5MjI1LDYzLjI5ODM2MTIgMTQ4LjY2OTY0Niw2OC4yMzI1MTU0IEMxNjIuMTQxMDY3LDczLjE2NzY2OTcgMjQyLjY4NjU4Myw4Ny42OTcxMjM3IDI1Niw5Mi41NzQyNzYxIEMyNTYsOTIuNTc0Mjc2MSAyNTUuOTkzOTk5LDExNS42ODQ5OTggMjU1Ljk5Mzk5OSwxMTguMDg3MDczIEMyNTUuOTk2LDEyMC42NDQxNTMgMjUyLjkyMzkwNCwxMjMuNDUwMjQxIDI0NS45Njk2ODcsMTI3LjA3NDM1NCI+JiN4YTsmI3hhOzwvcGF0aD4mI3hhOyAgICAgICAgPHBhdGggZmlsbD0iI0M2MzAyQiIgZD0iTTI0NS45NjQ5MjIsMTAxLjM1MTE2NCBDMjMyLjMwMzkzNSwxMDguNDcxMTU3IDE2MS41MzQwMDMsMTM3LjU2OTEyOSAxNDYuNDY3MDE3LDE0NS40MjYxMjIgQzEzMS40MDEwMzEsMTUzLjI4MDExNCAxMjMuMDMxMDM5LDE1My4yMDMxMTQgMTExLjEyOTA1LDE0Ny41MTMxMiBDOTkuMjI2MDYxOCwxNDEuODI3MTI1IDIzLjkxNTEzMzYsMTExLjQwMTE1NCAxMC4zNDkxNDY2LDEwNC45MTkxNiBDLTMuMjE2ODQwNTMsOTguNDM2MTY2NCAtMy41MDE4NDAyNiw5My45NzIxNzA2IDkuODI1MTQ3MDUsODguNzUyMTc1NiBDMjMuMTUxMTM0Myw4My41MzUxODA2IDk4LjA0OTA2MjksNTQuMTQ4MjA4NyAxMTMuODgwMDQ3LDQ4LjQ3MDIxNDEgQzEyOS43MDgwMzMsNDIuNzkyMjE5NSAxMzUuMTk5MDI4LDQyLjU4NjIxOTcgMTQ4LjY2OTAxNCw0Ny41MjEyMTUgQzE2Mi4xNDAwMDIsNTIuNDU1MjEwMiAyMzIuNDg3OTM1LDgwLjQ1NDE4MzUgMjQ1Ljc5OTkyMiw4NS4zMzExNzg5IEMyNTkuMTE0OTEsOTAuMjEwMTc0MiAyNTkuNjI1OTA4LDk0LjIzMDE3MDQgMjQ1Ljk2NDkyMiwxMDEuMzUwMTYzIEwyNDUuOTY0OTIyLDEwMS4zNTExNjQiPiYjeGE7JiN4YTs8L3BhdGg+JiN4YTsgICAgICAgIDxwYXRoIGZpbGw9IiM5MTI2MjYiIGQ9Ik0yNDUuOTY5Njg3LDgzLjY1MjU2NjEgQzIzMi4zMDgyNTksOTAuNzczNzg4NyAxNjEuNTM2MDQ4LDExOS44NzM2OTggMTQ2LjQ2ODU3NywxMjcuNzMwOTQ0IEMxMzEuNDAyMTA3LDEzNS41ODUxODkgMTIzLjAzMTg0NCwxMzUuNTA4MTg3IDExMS4xMjk0NzMsMTI5LjgxODAwOCBDOTkuMjI2MTAwNywxMjQuMTMwODMxIDIzLjkxMjc0NzMsOTMuNzA0ODgwMiAxMC4zNDYzMjM0LDg3LjIyMjY3NzcgQzMuNTY1MTExNDEsODMuOTgwNTc2NCAwLDgxLjI0NzQ5MDkgMCw3OC42NjU0MTAyIEwwLDUyLjc4NTYwMTUgQzAsNTIuNzg1NjAxNSA5OC4wNDkwNjM5LDMxLjQ0MTkzNDUgMTEzLjg3ODU1OSwyNS43NjM3NTcxIEMxMjkuNzA3MDUzLDIwLjA4NDU3OTcgMTM1LjE5OTIyNSwxOS44Nzk1NzMzIDE0OC42Njk2NDYsMjQuODEzNzI3NSBDMTYyLjE0MTA2NywyOS43NDg4ODE3IDI0Mi42ODY1ODMsNDQuMjc4MzM1NyAyNTYsNDkuMTU1NDg4MSBDMjU2LDQ5LjE1NTQ4ODEgMjU1Ljk5Mzk5OSw3Mi4yNjYyMTAzIDI1NS45OTM5OTksNzQuNjY3Mjg1MyBDMjU1Ljk5Niw3Ny4yMjIzNjUyIDI1Mi45MjM5MDQsODAuMDI4NDUyOCAyNDUuOTY5Njg3LDgzLjY1MjU2NjEiPiYjeGE7JiN4YTs8L3BhdGg+JiN4YTsgICAgICAgIDxwYXRoIGZpbGw9IiNDNjMwMkIiIGQ9Ik0yNDUuOTY0OTIyLDU3LjkyOTM4NyBDMjMyLjMwMzkzNSw2NS4wNDkzODAyIDE2MS41MzQwMDMsOTQuMTQ5MzUyNCAxNDYuNDY3MDE3LDEwMi4wMDQzNDUgQzEzMS40MDEwMzEsMTA5Ljg1ODMzOCAxMjMuMDMxMDM5LDEwOS43ODEzMzggMTExLjEyOTA1LDEwNC4wOTMzNDMgQzk5LjIyNzA2MTcsOTguNDA1MzQ4NCAyMy45MTUxMzM2LDY3Ljk4MTM3NzMgMTAuMzQ5MTQ2Niw2MS40OTgzODM2IEMtMy4yMTY4NDA1Myw1NS4wMTUzODk4IC0zLjUwMTg0MDI2LDUwLjU1MDM5NCA5LjgyNTE0NzA1LDQ1LjMzMTM5OSBDMjMuMTUxMTM0Myw0MC4xMTM0MDQgOTguMDQ5MDYyOSwxMC43Mjk0MzIgMTEzLjg4MDA0Nyw1LjA0OTQzNzQ0IEMxMjkuNzA4MDMzLC0wLjYyOTU1NzE0OCAxMzUuMTk5MDI4LC0wLjgzMzU1Njk1MyAxNDguNjY5MDE0LDQuMTAxNDM4MzQgQzE2Mi4xNDAwMDIsOS4wMzY0MzM2MyAyMzIuNDg3OTM1LDM3LjAzNTQwNjkgMjQ1Ljc5OTkyMiw0MS45MTI0MDIyIEMyNTkuMTE0OTEsNDYuNzg4Mzk3NiAyNTkuNjI1OTA4LDUwLjgwOTM5MzggMjQ1Ljk2NDkyMiw1Ny45MjkzODciPiYjeGE7JiN4YTs8L3BhdGg+JiN4YTsgICAgICAgIDxwYXRoIGZpbGw9IiNGRkZGRkYiIGQ9Ik0xNTkuMjgyOTc3LDMyLjc1NzA4NTMgTDEzNy4yNzM5MjIsMzUuMDQyMjMyNiBMMTMyLjM0NjQxOSw0Ni44OTc2MTI0IEwxMjQuMzg3NTk3LDMzLjY2Nzk2OSBMOTguOTczMTQ3LDMxLjM4MzgxNCBMMTE3LjkzNjk5MiwyNC41NDUyNDAzIEwxMTIuMjQ3NDQyLDE0LjA0NzI1NTggTDEzMC4wMDE3MzYsMjAuOTkxMDA3OCBMMTQ2LjczOTk2OSwxNS41MTA4MjE3IEwxNDIuMjE2MzEsMjYuMzY2MDE1NSBMMTU5LjI4Mjk3NywzMi43NTcwODUzIj4mI3hhOyYjeGE7PC9wYXRoPiYjeGE7ICAgICAgICA8cGF0aCBmaWxsPSIjRkZGRkZGIiBkPSJNMTMxLjAzMTY5LDkwLjI3NDcyODcgTDg5Ljk1NDYwNDcsNzMuMjM3ODI5NSBMMTQ4LjgxNTc1Miw2NC4yMDM0MTA5IEwxMzEuMDMxNjksOTAuMjc0NzI4NyI+JiN4YTsmI3hhOzwvcGF0aD4mI3hhOyAgICAgICAgPHBhdGggZmlsbD0iI0ZGRkZGRiIgZD0iTTc0LjA4MTYxMjQsMzkuMzQ2NjA0NyBDOTEuNDU2ODY4MiwzOS4zNDY2MDQ3IDEwNS41NDE4MjksNDQuODA2OTQ1NyAxMDUuNTQxODI5LDUxLjU0MTMzMzMgQzEwNS41NDE4MjksNTguMjc2NzEzMiA5MS40NTY4NjgyLDYzLjczNjA2MiA3NC4wODE2MTI0LDYzLjczNjA2MiBDNTYuNzA3MzQ4OCw2My43MzYwNjIgNDIuNjIxMzk1Myw1OC4yNzY3MTMyIDQyLjYyMTM5NTMsNTEuNTQxMzMzMyBDNDIuNjIxMzk1Myw0NC44MDY5NDU3IDU2LjcwNzM0ODgsMzkuMzQ2NjA0NyA3NC4wODE2MTI0LDM5LjM0NjYwNDciPiYjeGE7JiN4YTs8L3BhdGg+JiN4YTsgICAgICAgIDxwYXRoIGZpbGw9IiM2MjFCMUMiIGQ9Ik0xODUuMjk0NzYsMzUuOTk3NzY3NCBMMjIwLjEzMDYwNSw0OS43NjQyMTcxIEwxODUuMzI0NTI3LDYzLjUxNjc3NTIgTDE4NS4yOTQ3NiwzNS45OTc3Njc0Ij4mI3hhOyYjeGE7PC9wYXRoPiYjeGE7ICAgICAgICA8cGF0aCBmaWxsPSIjOUEyOTI4IiBkPSJNMTQ2Ljc1NDg1Myw1MS4yNDI2NjY3IEwxODUuMjk0NzYsMzUuOTk3NzY3NCBMMTg1LjMyNDUyNyw2My41MTY3NzUyIEwxODEuNTQ2MDQ3LDY0Ljk5NTIyNDggTDE0Ni43NTQ4NTMsNTEuMjQyNjY2NyI+JiN4YTsmI3hhOzwvcGF0aD4mI3hhOyAgICA8L2c+JiN4YTs8L3N2Zz4=;" parent="1" vertex="1">
          <mxGeometry x="510" y="235" width="50" height="50" as="geometry" />
        </mxCell>
        <mxCell id="xGDjlDLxAqylIo2OS0dg-3" style="edgeStyle=orthogonalEdgeStyle;rounded=0;orthogonalLoop=1;jettySize=auto;html=1;entryX=0;entryY=0.5;entryDx=0;entryDy=0;flowAnimation=1;" parent="1" target="yNPfiVlO1QsKJ9p5I-RB-10" edge="1">
          <mxGeometry relative="1" as="geometry">
            <mxPoint x="560" y="260" as="sourcePoint" />
            <mxPoint x="520" y="270" as="targetPoint" />
          </mxGeometry>
        </mxCell>
      </root>
    </mxGraphModel>
  </diagram>
  <diagram id="bSubeWmfMiyVSGFdszLa" name="Low-Level">
    <mxGraphModel dx="1152" dy="636" grid="1" gridSize="10" guides="1" tooltips="1" connect="1" arrows="1" fold="1" page="1" pageScale="1" pageWidth="827" pageHeight="1169" math="0" shadow="0">
      <root>
        <mxCell id="0" />
        <mxCell id="1" parent="0" />
        <mxCell id="9muRQBZ6VUFWYU8CpBun-5" value="WebSocketManager" style="swimlane;fontStyle=1;align=center;verticalAlign=top;childLayout=stackLayout;horizontal=1;startSize=26;horizontalStack=0;resizeParent=1;resizeParentMax=0;resizeLast=0;collapsible=1;marginBottom=0;whiteSpace=wrap;html=1;fillColor=#d5e8d4;strokeColor=#82b366;" vertex="1" parent="1">
          <mxGeometry x="40" y="160" width="160" height="134" as="geometry" />
        </mxCell>
        <mxCell id="9muRQBZ6VUFWYU8CpBun-7" value="" style="line;strokeWidth=1;fillColor=none;align=left;verticalAlign=middle;spacingTop=-1;spacingLeft=3;spacingRight=3;rotatable=0;labelPosition=right;points=[];portConstraint=eastwest;strokeColor=inherit;" vertex="1" parent="9muRQBZ6VUFWYU8CpBun-5">
          <mxGeometry y="26" width="160" height="8" as="geometry" />
        </mxCell>
        <mxCell id="9muRQBZ6VUFWYU8CpBun-8" value="+ __ainit__(): None&lt;br&gt;+ close(): None&lt;br&gt;+ connect(): None&lt;br&gt;+ receive(): None&lt;br&gt;+ send(): None&lt;br&gt;+ subscribe(): None&lt;br&gt;&lt;br&gt;&lt;br&gt;" style="text;strokeColor=none;fillColor=none;align=left;verticalAlign=middle;spacingLeft=4;spacingRight=4;overflow=hidden;rotatable=0;points=[[0,0.5],[1,0.5]];portConstraint=eastwest;strokeWidth=1;spacingTop=1;spacing=2;spacingBottom=0;whiteSpace=wrap;html=1;" vertex="1" parent="9muRQBZ6VUFWYU8CpBun-5">
          <mxGeometry y="34" width="160" height="100" as="geometry" />
        </mxCell>
        <mxCell id="9muRQBZ6VUFWYU8CpBun-11" value="Abstract Class" style="text;html=1;align=center;verticalAlign=middle;whiteSpace=wrap;rounded=0;fillColor=#d5e8d4;strokeColor=#82b366;" vertex="1" parent="1">
          <mxGeometry x="40" y="40" width="80" height="40" as="geometry" />
        </mxCell>
        <mxCell id="T987teXwENLWj2_HOSO3-3" style="edgeStyle=orthogonalEdgeStyle;rounded=0;orthogonalLoop=1;jettySize=auto;html=1;exitX=1;exitY=0.5;exitDx=0;exitDy=0;flowAnimation=1;" edge="1" parent="1" source="T987teXwENLWj2_HOSO3-1" target="T987teXwENLWj2_HOSO3-2">
          <mxGeometry relative="1" as="geometry" />
        </mxCell>
        <mxCell id="T987teXwENLWj2_HOSO3-1" value="DeribitConnector" style="html=1;whiteSpace=wrap;" vertex="1" parent="1">
          <mxGeometry x="120" y="360" width="110" height="50" as="geometry" />
        </mxCell>
        <mxCell id="3sh2SsIAwITYcbAtPiH_-2" style="edgeStyle=orthogonalEdgeStyle;rounded=0;orthogonalLoop=1;jettySize=auto;html=1;exitX=0.5;exitY=0;exitDx=0;exitDy=0;entryX=0.5;entryY=1;entryDx=0;entryDy=0;flowAnimation=1;" edge="1" parent="1" source="T987teXwENLWj2_HOSO3-2" target="3sh2SsIAwITYcbAtPiH_-1">
          <mxGeometry relative="1" as="geometry" />
        </mxCell>
        <mxCell id="T987teXwENLWj2_HOSO3-2" value="DeribitProcessor" style="html=1;whiteSpace=wrap;" vertex="1" parent="1">
          <mxGeometry x="320" y="360" width="120" height="50" as="geometry" />
        </mxCell>
        <mxCell id="3sh2SsIAwITYcbAtPiH_-1" value="RedisProducer" style="html=1;whiteSpace=wrap;" vertex="1" parent="1">
          <mxGeometry x="325" y="244" width="110" height="50" as="geometry" />
        </mxCell>
      </root>
    </mxGraphModel>
  </diagram>
</mxfile>
